<?xml version="1.0" ?><svg viewBox="0 0 32 32" xmlns="http://www.w3.org/2000/svg"><title/><g data-name="91-Coffee Bean" id="_91-Coffee_Bean"><path d="M16,0A12,12,0,0,0,4,12v8a12,12,0,0,0,24,0V12A12,12,0,0,0,16,0Zm-.71,23.29A3.57,3.57,0,0,0,14,26v3.8A10,10,0,0,1,6,20V12A10,10,0,0,1,16,2V6c0,.56-.22.8-.71,1.29a3.48,3.48,0,0,0,0,5.41c.49.49.71.73.71,1.29s-.22.8-.71,1.29a3.48,3.48,0,0,0,0,5.42c.49.49.71.73.71,1.3S15.78,22.8,15.29,23.29ZM26,20A10,10,0,0,1,16,30V26c0-.56.22-.8.71-1.29a3.49,3.49,0,0,0,0-5.42c-.49-.49-.71-.73-.71-1.29s.22-.8.71-1.29a3.48,3.48,0,0,0,0-5.41C16.22,10.8,16,10.56,16,10s.22-.8.71-1.29A3.56,3.56,0,0,0,18,6V2.2A10,10,0,0,1,26,12Z"/></g></svg>